HIERARCHY
ROOT Hips
{
	OFFSET 0.000000 0.000000 0.000000
	CHANNELS 6 Xposition Yposition Zposition Zrotation Yrotation Xrotation 
	JOINT LHipJoint
	{
		OFFSET 0.000000 0.000000 0.000000
		CHANNELS 3 Zrotation Yrotation Xrotation
		JOINT LeftUpLeg
		{
			OFFSET 1.363060 -1.794630 0.839290
			CHANNELS 3 Zrotation Yrotation Xrotation
			JOINT LeftLeg
			{
				OFFSET 2.448110 -6.726130 0.000000
				CHANNELS 3 Zrotation Yrotation Xrotation
				JOINT LeftFoot
				{
					OFFSET 2.562200 -7.039590 0.000000
					CHANNELS 3 Zrotation Yrotation Xrotation
					JOINT LeftToeBase
					{
						OFFSET 0.157640 -0.433110 2.322550
						CHANNELS 3 Zrotation Yrotation Xrotation
						End Site
						{
							OFFSET 0.000000 0.000000 0.000000
						}
					}
				}
			}
		}
	}
	JOINT RHipJoint
	{
		OFFSET 0.000000 0.000000 0.000000
		CHANNELS 3 Zrotation Yrotation Xrotation
		JOINT RightUpLeg
		{
			OFFSET -1.305520 -1.794630 0.839290
			CHANNELS 3 Zrotation Yrotation Xrotation
			JOINT RightLeg
			{
				OFFSET -2.542530 -6.985550 0.000000
				CHANNELS 3 Zrotation Yrotation Xrotation
				JOINT RightFoot
				{
					OFFSET -2.568260 -7.056230 0.000000
					CHANNELS 3 Zrotation Yrotation Xrotation
					JOINT RightToeBase
					{
						OFFSET -0.164730 -0.452590 2.363150
						CHANNELS 3 Zrotation Yrotation Xrotation
						End Site
						{
							OFFSET 0.000000 0.000000 0.000000
						}
					}
				}
			}
		}
	}
}
MOTION
Frames: 28
Frame Time: 0.008333
23.719237 16.412770 3.566070 -164.953964 -80.339604 -160.370059 -12.409158 2.702023 -3.073235 -5.260263 10.379368 -13.324316 -0.666468 1.399923 27.270657 1.653105 7.623594 22.875097 3.107600 -0.000000 -88.459200 7.598524 0.583383 4.788760 3.599569 15.423889 -63.996555 1.999174 -1.323882 26.111711 -0.241657 -0.703504 1.627072 -0.875700 0.000000 -25.781500
23.585322 16.417466 3.524604 -162.439201 -80.527606 -162.676947 -12.422509 2.517846 -3.185300 -4.609711 10.527772 -14.066205 -0.578477 1.459766 28.778456 1.731823 7.488342 24.016178 3.102500 -0.000001 -85.084700 7.526115 0.566601 4.622755 4.152780 15.730043 -64.065901 1.991149 -1.442576 27.587270 -0.345511 -0.826056 0.066392 -0.821500 0.000000 -24.425800
23.456348 16.426478 3.480519 -160.279546 -80.805944 -164.684225 -12.424122 2.333867 -3.293180 -4.019102 10.596951 -14.822885 -0.501790 1.523790 30.342687 1.818270 7.465267 25.065561 3.144500 0.000000 -80.895700 7.466597 0.570869 4.434889 4.633664 15.917765 -63.923051 1.989117 -1.522819 28.760694 -0.467459 -1.029761 -1.459346 -0.774300 0.000000 -23.254000
23.331115 16.439077 3.434148 -158.442621 -81.189828 -166.413373 -12.411869 2.156409 -3.387047 -3.499978 10.570692 -15.600249 -0.436673 1.591247 31.939979 1.909833 7.599082 25.945980 3.257900 -0.000000 -76.013700 7.426186 0.594677 4.231219 5.041390 15.968535 -63.608977 1.989696 -1.572399 29.660476 -0.602273 -1.305700 -2.874236 -0.732000 0.000000 -22.280200
23.208701 16.454686 3.386029 -156.887475 -81.687426 -167.894069 -12.385307 1.989665 -3.458786 -3.060639 10.440120 -16.407692 -0.381209 1.661045 33.545939 2.004195 7.927639 26.591497 3.463799 -0.000000 -70.660100 7.408634 0.634125 4.019207 5.376285 15.873544 -63.170604 1.989421 -1.599473 30.321972 -0.743737 -1.641950 -4.115482 -0.694500 -0.000000 -21.543400
23.088258 16.472945 3.336895 -155.549128 -82.298802 -169.178277 -12.345776 1.835124 -3.502470 -2.703543 10.204527 -17.254287 -0.331773 1.731280 35.135711 2.099866 8.473034 26.956064 3.773700 0.000000 -65.134100 7.414629 0.682701 3.807168 5.643352 15.636053 -62.653352 1.986122 -1.611444 30.781124 -0.885482 -2.024003 -5.140374 -0.664100 -0.000000 -21.085700
22.968789 16.493633 3.287564 -154.357771 -83.012216 -170.321199 -12.295751 1.692468 -3.514789 -2.427661 9.870470 -18.146426 -0.284610 1.799488 36.684663 2.196468 9.238658 27.016358 4.185700 0.000000 -59.771300 7.442433 0.733711 3.602680 5.850853 15.269246 -62.098645 1.979527 -1.614439 31.074490 -1.021238 -2.431583 -5.934361 -0.642800 -0.000000 -20.913600
22.849599 16.516735 3.239133 -153.082537 -83.823919 -171.541565 -12.237519 1.553547 -3.495173 -2.211270 9.452995 -19.090843 -0.233540 1.860884 38.178212 2.293352 10.197084 26.763727 4.676201 -0.000000 -54.816500 7.486463 0.772704 3.415097 6.021832 14.796876 -61.537096 1.973415 -1.613585 31.227230 -1.147883 -2.848387 -6.515941 -0.632299 0.000000 -20.907400
22.730427 16.542242 3.192064 -151.650696 -84.709108 -172.903650 -12.173600 1.415795 -3.446462 -2.058391 8.967612 -20.081606 -0.176367 1.912027 39.595439 2.390690 11.314315 26.208875 5.215800 -0.000001 -50.486099 7.542880 0.794310 3.248794 6.159252 14.239918 -60.994330 1.969123 -1.612541 31.270887 -1.260885 -3.248429 -6.912911 -0.631900 -0.000000 -21.083500
22.611283 16.570319 3.146854 -149.796090 -85.660168 -174.674508 -12.106678 1.268483 -3.374985 -1.957200 8.435294 -21.106873 -0.108377 1.946878 40.924254 2.487392 12.533602 25.369937 5.760800 -0.000000 -46.861899 7.604493 0.784850 3.107965 6.276478 13.620602 -60.479594 1.970975 -1.614877 31.225156 -1.359007 -3.611918 -7.177923 -0.638200 0.000000 -21.334900
22.492087 16.600992 3.103991 -146.684662 -86.726711 -177.687784 -12.044648 1.081017 -3.285911 -1.885255 7.867492 -22.163487 -0.015228 1.949066 42.169324 2.580081 13.780767 24.265950 6.258200 0.000000 -43.896800 7.655854 0.705372 3.006680 6.384743 12.953125 -60.006739 1.984950 -1.627090 31.089542 -1.446278 -3.937519 -7.364666 -0.648400 0.000000 -21.593000
22.373447 16.634441 3.062997 -141.121660 -87.991792 176.831823 -12.027712 0.809144 -3.190124 -1.866424 7.264259 -23.199118 0.121569 1.894843 43.314944 2.665941 14.997423 22.942391 6.671300 0.000000 -41.564000 7.655599 0.501893 2.945873 6.456899 12.213097 -59.564941 2.013313 -1.658806 30.884134 -1.524034 -4.208370 -7.538690 -0.654600 -0.000000 -21.789300
22.255523 16.670463 3.023965 -125.692275 -89.996066 161.428340 -12.383193 0.236705 -3.064479 -2.006474 6.532225 -24.166242 0.384676 1.694601 44.375051 2.738862 16.113587 21.440394 6.961900 -0.000000 -39.720300 7.296915 -0.113388 2.958502 6.347184 11.255392 -59.199353 2.060529 -1.726689 30.607642 -1.605610 -4.440729 -7.766413 -0.655700 -0.000000 -21.895800
22.138987 16.709019 2.985936 117.050875 -86.834649 -81.182731 -14.536944 -0.054668 -2.752615 -3.100781 6.114801 -25.187368 0.272657 1.917242 44.963659 2.860756 17.201628 19.842533 7.115300 0.000000 -38.284300 5.482065 -0.531579 2.573142 5.729562 10.520292 -58.698539 2.035908 -1.414443 30.636327 -1.555813 -4.250858 -7.889997 -0.646600 0.000000 -21.883700
22.016688 16.747852 2.960137 177.037588 -87.298444 -140.490610 -13.379131 1.190847 -2.420948 -2.250344 5.736704 -27.234289 -0.315929 2.675452 45.834364 2.987557 18.030099 18.124235 7.081400 0.000000 -37.142801 6.634127 1.187144 2.154040 7.159634 10.637880 -57.993455 2.152265 -1.076044 30.134786 -1.512378 -4.273275 -7.819517 -0.650400 0.000001 -21.688400
21.904585 16.790414 2.922389 -175.798235 -88.010427 -147.575836 -12.894568 1.177735 -2.398713 -2.150968 5.474272 -28.166269 -0.295625 2.700246 46.467181 3.034888 18.687656 16.430044 6.980100 0.000000 -36.261700 7.033123 1.276321 2.103973 7.478539 10.234643 -57.337980 2.212610 -1.064764 29.644872 -1.545242 -4.350998 -8.045349 -0.622200 -0.000000 -21.462700
21.794923 16.834410 2.883785 -170.820078 -88.672293 -152.541480 -12.542857 1.101395 -2.389734 -2.143109 5.237219 -28.993263 -0.262207 2.693258 46.969870 3.067886 19.165070 14.773699 6.776000 0.000000 -35.499000 7.310224 1.272359 2.047303 7.727719 9.806425 -56.615846 2.272097 -1.047262 29.108622 -1.575101 -4.406997 -8.290910 -0.589600 0.000000 -21.173000
21.687801 16.879378 2.843982 -166.675432 -89.294442 -156.738566 -12.255395 0.996035 -2.398387 -2.201901 5.034407 -29.713276 -0.228606 2.666510 47.344368 3.086661 19.477354 13.196186 6.498899 0.000000 -34.807800 7.529629 1.225758 1.980450 7.927590 9.373298 -55.813095 2.325778 -1.024733 28.530168 -1.602924 -4.459592 -8.524466 -0.557400 -0.000000 -20.863000
21.583051 16.924798 2.802808 -162.779263 -89.904286 -160.753355 -12.006242 0.869718 -2.422755 -2.318172 4.857569 -30.328598 -0.196196 2.620973 47.598722 3.091914 19.647150 11.718658 6.176100 -0.000000 -34.102300 7.716259 1.149959 1.905717 8.080032 8.933933 -54.935992 2.369670 -1.001824 27.921299 -1.629993 -4.524748 -8.715601 -0.530300 -0.000001 -20.587100
21.480103 16.970314 2.760474 21.089253 -89.485494 15.198355 -11.792978 0.724620 -2.460245 -2.488482 4.697905 -30.838519 -0.165652 2.557864 47.731936 3.086588 19.709766 10.365513 5.838000 -0.000000 -33.422000 7.873635 1.050672 1.822208 8.180841 8.488608 -53.989550 2.400594 -0.980587 27.293452 -1.656896 -4.613484 -8.839765 -0.512500 -0.000000 -20.375000
21.378945 17.015703 2.717214 25.049708 -88.865422 10.998479 -11.618768 0.562939 -2.506683 -2.715104 4.546941 -31.246831 -0.137655 2.479325 47.746248 3.073786 19.699302 9.134393 5.503000 0.000000 -32.761999 8.000235 0.931853 1.729602 8.223981 8.034068 -52.988099 2.416418 -0.963877 26.668240 -1.682661 -4.726780 -8.880235 -0.506200 -0.000000 -20.256900
21.278564 17.060536 2.673695 28.967171 -88.251631 6.800498 -11.491669 0.395002 -2.549584 -2.993114 4.398845 -31.582816 -0.116537 2.393039 47.648859 3.057660 19.648052 8.007356 5.181300 0.000000 -32.034801 8.090217 0.801416 1.632903 8.213872 7.582161 -51.960722 2.416652 -0.949882 26.066247 -1.706269 -4.864279 -8.822032 -0.514100 0.000000 -20.278100
21.178853 17.104822 2.630508 32.771795 -87.660584 2.683779 -11.408770 0.230436 -2.585804 -3.317003 4.252636 -31.851889 -0.105826 2.304954 47.436110 3.042490 19.588775 6.972513 4.881400 0.000000 -31.289700 8.146471 0.670302 1.529488 8.155640 7.139812 -50.916315 2.402054 -0.938081 25.504607 -1.725685 -5.015994 -8.668226 -0.535200 0.000000 -20.437100
21.079015 17.148482 2.588393 36.261131 -87.119804 -1.131718 -11.360685 0.081446 -2.608832 -3.669999 4.109252 -32.080693 -0.109505 2.222146 47.112961 3.032068 19.544206 6.010256 4.604999 0.000000 -30.548900 8.176386 0.550527 1.422744 8.065537 6.725472 -49.876780 2.374974 -0.926047 24.994397 -1.740006 -5.174542 -8.427511 -0.568600 0.000000 -20.727200
20.978893 17.191599 2.547859 39.345084 -86.641352 -4.549139 -11.333183 -0.045369 -2.616212 -4.036555 3.968262 -32.277709 -0.128092 2.146305 46.683711 3.028783 19.528812 5.100911 4.349800 0.000000 -29.826200 8.191646 0.447808 1.314537 7.958858 6.345132 -48.849374 2.338743 -0.913993 24.543160 -1.748023 -5.327701 -8.120181 -0.610800 -0.000000 -21.129799
20.878037 17.234195 2.509418 41.927811 -86.233452 -7.462681 -11.312442 -0.147983 -2.606380 -4.398349 3.826365 -32.457515 -0.160577 2.077301 46.155343 3.034087 19.548543 4.230407 4.112600 0.000000 -29.142700 8.202480 0.364565 1.207678 7.852359 6.004826 -47.843536 2.297378 -0.901623 24.148761 -1.749631 -5.467266 -7.768791 -0.658300 0.000000 -21.621100
20.776639 17.276320 2.473332 43.972788 -85.895760 -9.831298 -11.288457 -0.228223 -2.579073 -4.740152 3.679473 -32.627247 -0.204362 2.013059 45.536619 3.048034 19.601021 3.390763 3.889500 0.000001 -28.517600 8.215991 0.298959 1.104105 7.759755 5.704157 -46.860894 2.254805 -0.889092 23.804930 -1.744866 -5.585514 -7.397382 -0.707200 0.000000 -22.174600
20.674814 17.318012 2.439639 45.487193 -85.621928 -11.666893 -11.255817 -0.290022 -2.535329 -5.051253 3.523566 -32.787187 -0.256240 1.951218 44.838074 3.069487 19.677501 2.579300 3.676800 0.000000 -27.948699 8.235632 0.247320 1.003824 7.690369 5.437216 -45.894502 2.214106 -0.876592 23.501570 -1.734064 -5.677986 -7.025085 -0.754200 -0.000001 -22.783400
